<svg id="Layer_1" data-name="Layer 1" xmlns="http://www.w3.org/2000/svg" viewBox="0 0 83 17"><defs><style>.cls-1{fill:#0f8093;}.cls-2{fill:#1cbeca;}.cls-3{fill:#fff;}</style></defs><title>cta</title><path class="cls-1" d="M75.5,18H9.5A8.52,8.52,0,0,1,1,9.5H1A8.52,8.52,0,0,1,9.5,1h66A8.52,8.52,0,0,1,84,9.5h0A8.52,8.52,0,0,1,75.5,18Z" transform="translate(-1 -1)"/><path class="cls-2" d="M72.88,11.51,77.12,10,72.7,8.37A2.63,2.63,0,0,1,71.94,8a.69.69,0,0,1-.22-.56.84.84,0,0,1,.24-.6.74.74,0,0,1,.55-.25,1.11,1.11,0,0,1,.29,0l.31.1.33.13,4.44,1.79.49.19a2.51,2.51,0,0,1,.5.27,1.05,1.05,0,0,1,.33.36,1.09,1.09,0,0,1,.12.52,1,1,0,0,1-.18.63,1.22,1.22,0,0,1-.4.35q-.22.11-.85.38l-4.4,1.78-.33.13-.33.11a1.19,1.19,0,0,1-.29,0,.72.72,0,0,1-.38-.12.91.91,0,0,1-.31-.32.87.87,0,0,1-.12-.44A.71.71,0,0,1,72,11.9,4.22,4.22,0,0,1,72.88,11.51Z" transform="translate(-1 -1)"/><path class="cls-2" d="M69.27,9.71a1.23,1.23,0,1,1-1.49-.91,1.23,1.23,0,0,1,1.49.91" transform="translate(-1 -1)"/><path class="cls-2" d="M64.27,9.71a1.23,1.23,0,1,1-1.49-.91,1.23,1.23,0,0,1,1.49.91" transform="translate(-1 -1)"/><path class="cls-2" d="M59.27,9.71a1.23,1.23,0,1,1-1.49-.91,1.23,1.23,0,0,1,1.49.91" transform="translate(-1 -1)"/><path class="cls-3" d="M13.1,12.75a6.75,6.75,0,0,1-3.22.77A3.9,3.9,0,0,1,5.76,9.46,3.92,3.92,0,0,1,9.87,5.34a4.44,4.44,0,0,1,3.07,1l-1,1a2.94,2.94,0,0,0-2-.76A2.64,2.64,0,0,0,7.21,9.37a2.67,2.67,0,0,0,2.67,2.89,3.73,3.73,0,0,0,1.83-.41V10h-1.6V8.77h3Z" transform="translate(-1 -1)"/><path class="cls-3" d="M14.7,5.53h1.39v7.79H14.7Z" transform="translate(-1 -1)"/><path class="cls-3" d="M17.79,5.53h1.39v6.53h3.31v1.25h-4.7Z" transform="translate(-1 -1)"/><path class="cls-3" d="M27.2,5.34a3.87,3.87,0,0,1,4.15,4.08,4,4,0,0,1-4.15,4.1,3.9,3.9,0,0,1-4.11-4.06A3.92,3.92,0,0,1,27.2,5.34Zm0,6.93a2.68,2.68,0,0,0,2.68-2.89,2.68,2.68,0,1,0-5.36,0A2.67,2.67,0,0,0,27.21,12.27Z" transform="translate(-1 -1)"/><path class="cls-3" d="M34.26,6.79H31.87V5.53H38V6.79H35.65v6.54H34.26Z" transform="translate(-1 -1)"/><path class="cls-3" d="M39,5.53h2.71c1.5,0,2.9.48,2.9,2.23a2,2,0,0,1-1.8,2.11l2.07,3.44H43.18L41.38,10h-1v3.3H39Zm2.46,3.3c.78,0,1.69-.07,1.69-1.08s-.86-1-1.57-1h-1.2V8.83Z" transform="translate(-1 -1)"/><path class="cls-3" d="M45.88,5.53h1.39v7.79H45.88Z" transform="translate(-1 -1)"/><path class="cls-3" d="M49,5.53h5V6.79H50.35v2h3.43v1.25H50.35v3.23H49Z" transform="translate(-1 -1)"/></svg>