<svg id="Layer_2" data-name="Layer 2" xmlns="http://www.w3.org/2000/svg" viewBox="0 0 52.37 33.79"><defs><style>.cls-1{fill:#1cbeca;}</style></defs><title>t5</title><path class="cls-1" d="M13.37,2.56H18.5V4.1H15V5.51h3.27V7H15V8.58h3.66v1.54H13.37Z" transform="translate(-5.84 -2.05)"/><path class="cls-1" d="M21.22,7.34,19.49,4.93h1.89l.92,1.41.88-1.41H25L23.28,7.34l2,2.77H23.39L22.26,8.39,21,10.12H19.17Z" transform="translate(-5.84 -2.05)"/><path class="cls-1" d="M25.9,4.93h1.47v.68h0a1.74,1.74,0,0,1,.25-.28A1.86,1.86,0,0,1,28,5.07a2.25,2.25,0,0,1,.45-.19A1.78,1.78,0,0,1,29,4.81,2.68,2.68,0,0,1,30,5a2.33,2.33,0,0,1,.8.55,2.47,2.47,0,0,1,.52.85,3.08,3.08,0,0,1,.18,1.08,3.26,3.26,0,0,1-.17,1,2.87,2.87,0,0,1-.47.88,2.3,2.3,0,0,1-.74.61,2.11,2.11,0,0,1-1,.23,2.75,2.75,0,0,1-.93-.15,1.49,1.49,0,0,1-.71-.53h0v3H25.9Zm1.47,2.59a1.34,1.34,0,0,0,.34.95,1.41,1.41,0,0,0,1.89,0,1.34,1.34,0,0,0,.34-.95,1.34,1.34,0,0,0-.34-.95,1.41,1.41,0,0,0-1.89,0A1.34,1.34,0,0,0,27.38,7.52Z" transform="translate(-5.84 -2.05)"/><path class="cls-1" d="M32.5,2.05h1.6v8.06H32.5Z" transform="translate(-5.84 -2.05)"/><path class="cls-1" d="M35.06,7.52a2.72,2.72,0,0,1,.22-1.12,2.58,2.58,0,0,1,.61-.86A2.7,2.7,0,0,1,36.81,5a3.39,3.39,0,0,1,2.25,0,2.71,2.71,0,0,1,.92.55,2.59,2.59,0,0,1,.61.86,2.72,2.72,0,0,1,.22,1.12,2.72,2.72,0,0,1-.22,1.12A2.59,2.59,0,0,1,40,9.5a2.71,2.71,0,0,1-.92.55,3.39,3.39,0,0,1-2.25,0,2.7,2.7,0,0,1-.92-.55,2.58,2.58,0,0,1-.61-.86A2.72,2.72,0,0,1,35.06,7.52Zm1.6,0a1.34,1.34,0,0,0,.34.95,1.41,1.41,0,0,0,1.89,0,1.34,1.34,0,0,0,.34-.95,1.34,1.34,0,0,0-.34-.95,1.41,1.41,0,0,0-1.89,0A1.34,1.34,0,0,0,36.66,7.52Z" transform="translate(-5.84 -2.05)"/><path class="cls-1" d="M41.75,4.93h1.6v.83h0A2,2,0,0,1,44,5a1.54,1.54,0,0,1,.88-.24h.28l.26,0V6.32l-.34-.08-.35,0a1.7,1.7,0,0,0-.73.13,1,1,0,0,0-.41.36,1.36,1.36,0,0,0-.19.55,5.37,5.37,0,0,0,0,.7v2.17h-1.6Z" transform="translate(-5.84 -2.05)"/><path class="cls-1" d="M50.81,9.22a2.55,2.55,0,0,1-1,.76,2.9,2.9,0,0,1-1.22.27,3.26,3.26,0,0,1-1.12-.19,2.71,2.71,0,0,1-.92-.55A2.59,2.59,0,0,1,46,8.65a2.72,2.72,0,0,1-.22-1.12A2.72,2.72,0,0,1,46,6.4a2.59,2.59,0,0,1,.61-.86A2.71,2.71,0,0,1,47.5,5a3.26,3.26,0,0,1,1.13-.19,2.56,2.56,0,0,1,1,.19,2.09,2.09,0,0,1,.77.55,2.49,2.49,0,0,1,.49.86,3.45,3.45,0,0,1,.17,1.12V8H47.34a1.27,1.27,0,0,0,.42.73,1.18,1.18,0,0,0,.79.27,1.2,1.2,0,0,0,.67-.18,1.78,1.78,0,0,0,.47-.45ZM49.46,6.94a.93.93,0,0,0-.27-.69A1,1,0,0,0,48.47,6,1.2,1.2,0,0,0,48,6a1.17,1.17,0,0,0-.35.22,1,1,0,0,0-.22.31,1,1,0,0,0-.09.37Z" transform="translate(-5.84 -2.05)"/><path class="cls-1" d="M9.35,22.27h0a1.51,1.51,0,0,1-.71.6,2.44,2.44,0,0,1-.93.18,2.41,2.41,0,0,1-.7-.1,1.75,1.75,0,0,1-.59-.3,1.46,1.46,0,0,1-.41-.5,1.53,1.53,0,0,1-.15-.69A1.59,1.59,0,0,1,6,20.69a1.48,1.48,0,0,1,.45-.51,2.23,2.23,0,0,1,.65-.31,4.7,4.7,0,0,1,.75-.17,7.19,7.19,0,0,1,.78-.06h.72a.83.83,0,0,0-.3-.68,1.1,1.1,0,0,0-.72-.25,1.57,1.57,0,0,0-.72.17,2,2,0,0,0-.58.45l-.85-.87a2.94,2.94,0,0,1,1-.62,3.73,3.73,0,0,1,1.24-.21,3.24,3.24,0,0,1,1.16.18,1.68,1.68,0,0,1,.72.52,2,2,0,0,1,.38.84,5.48,5.48,0,0,1,.11,1.15v2.63H9.35ZM9,20.64l-.45,0a2.29,2.29,0,0,0-.52.09,1.16,1.16,0,0,0-.43.22.52.52,0,0,0-.18.42.46.46,0,0,0,.25.43,1,1,0,0,0,.51.14,1.61,1.61,0,0,0,.45-.06A1.36,1.36,0,0,0,9,21.71a.88.88,0,0,0,.27-.3.86.86,0,0,0,.1-.43v-.34Z" transform="translate(-5.84 -2.05)"/><path class="cls-1" d="M11.85,14.85h1.6v8.06h-1.6Z" transform="translate(-5.84 -2.05)"/><path class="cls-1" d="M14.62,14.85h1.6v8.06h-1.6Z" transform="translate(-5.84 -2.05)"/><path class="cls-1" d="M20.53,17.73h1.6v.83h0a2,2,0,0,1,.61-.72,1.54,1.54,0,0,1,.88-.24h.28l.26,0v1.46L23.84,19l-.35,0a1.7,1.7,0,0,0-.73.13,1,1,0,0,0-.41.36,1.36,1.36,0,0,0-.19.55,5.37,5.37,0,0,0,0,.7v2.17h-1.6Z" transform="translate(-5.84 -2.05)"/><path class="cls-1" d="M29.58,22a2.55,2.55,0,0,1-1,.76A2.9,2.9,0,0,1,27.4,23a3.26,3.26,0,0,1-1.12-.19,2.71,2.71,0,0,1-.92-.55,2.59,2.59,0,0,1-.61-.86,2.92,2.92,0,0,1,0-2.24,2.59,2.59,0,0,1,.61-.86,2.71,2.71,0,0,1,.92-.55,3.26,3.26,0,0,1,1.13-.19,2.56,2.56,0,0,1,1,.19,2.09,2.09,0,0,1,.77.55,2.49,2.49,0,0,1,.49.86,3.45,3.45,0,0,1,.17,1.12v.5H26.12a1.27,1.27,0,0,0,.42.73,1.18,1.18,0,0,0,.79.27,1.2,1.2,0,0,0,.67-.18,1.78,1.78,0,0,0,.47-.45Zm-1.35-2.28A.93.93,0,0,0,28,19a1,1,0,0,0-.71-.29,1.2,1.2,0,0,0-.47.09,1.17,1.17,0,0,0-.35.22,1,1,0,0,0-.22.31,1,1,0,0,0-.09.37Z" transform="translate(-5.84 -2.05)"/><path class="cls-1" d="M34.05,22.27h0a1.51,1.51,0,0,1-.71.6,2.44,2.44,0,0,1-.93.18,2.41,2.41,0,0,1-.7-.1,1.75,1.75,0,0,1-.59-.3,1.46,1.46,0,0,1-.41-.5,1.53,1.53,0,0,1-.15-.69,1.59,1.59,0,0,1,.17-.76,1.48,1.48,0,0,1,.45-.51,2.23,2.23,0,0,1,.65-.31,4.7,4.7,0,0,1,.75-.17,7.19,7.19,0,0,1,.78-.06h.72a.83.83,0,0,0-.3-.68,1.1,1.1,0,0,0-.72-.25,1.57,1.57,0,0,0-.72.17,2,2,0,0,0-.58.45l-.85-.87a2.94,2.94,0,0,1,1-.62,3.73,3.73,0,0,1,1.24-.21,3.24,3.24,0,0,1,1.16.18,1.68,1.68,0,0,1,.72.52,2,2,0,0,1,.38.84,5.48,5.48,0,0,1,.11,1.15v2.63H34.05Zm-.39-1.62-.45,0a2.29,2.29,0,0,0-.52.09,1.16,1.16,0,0,0-.43.22.52.52,0,0,0-.18.42.46.46,0,0,0,.25.43,1,1,0,0,0,.51.14,1.61,1.61,0,0,0,.45-.06,1.36,1.36,0,0,0,.39-.18.88.88,0,0,0,.27-.3.86.86,0,0,0,.1-.43v-.34Z" transform="translate(-5.84 -2.05)"/><path class="cls-1" d="M39.46,19.26a1.13,1.13,0,0,0-.93-.44.87.87,0,0,0-.39.1.34.34,0,0,0-.19.33.3.3,0,0,0,.2.28,2.59,2.59,0,0,0,.5.16l.65.15a2.44,2.44,0,0,1,.65.25,1.46,1.46,0,0,1,.5.46,1.39,1.39,0,0,1,.2.78,1.45,1.45,0,0,1-.22.83,1.67,1.67,0,0,1-.56.52,2.4,2.4,0,0,1-.77.28,4.53,4.53,0,0,1-.84.08,4.08,4.08,0,0,1-1.1-.15,2.05,2.05,0,0,1-.94-.55l1-1.08a1.61,1.61,0,0,0,.5.42,1.34,1.34,0,0,0,.63.14,1.49,1.49,0,0,0,.5-.08.29.29,0,0,0,.22-.29.32.32,0,0,0-.2-.3,2.15,2.15,0,0,0-.5-.17l-.65-.15a2.7,2.7,0,0,1-.65-.24,1.36,1.36,0,0,1-.5-.45,1.38,1.38,0,0,1-.2-.78,1.58,1.58,0,0,1,.19-.79A1.64,1.64,0,0,1,37,18a2.12,2.12,0,0,1,.7-.31,3.21,3.21,0,0,1,.8-.1,3.75,3.75,0,0,1,1,.15,1.92,1.92,0,0,1,.88.53Z" transform="translate(-5.84 -2.05)"/><path class="cls-1" d="M41.27,20.32a2.72,2.72,0,0,1,.22-1.12,2.58,2.58,0,0,1,.61-.86A2.7,2.7,0,0,1,43,17.8a3.39,3.39,0,0,1,2.25,0,2.71,2.71,0,0,1,.92.55,2.59,2.59,0,0,1,.61.86,2.92,2.92,0,0,1,0,2.24,2.59,2.59,0,0,1-.61.86,2.71,2.71,0,0,1-.92.55,3.39,3.39,0,0,1-2.25,0,2.7,2.7,0,0,1-.92-.55,2.58,2.58,0,0,1-.61-.86A2.72,2.72,0,0,1,41.27,20.32Zm1.6,0a1.34,1.34,0,0,0,.34.95,1.41,1.41,0,0,0,1.89,0,1.51,1.51,0,0,0,0-1.9,1.41,1.41,0,0,0-1.89,0A1.34,1.34,0,0,0,42.88,20.32Z" transform="translate(-5.84 -2.05)"/><path class="cls-1" d="M48,17.73h1.54v.7h0a1.29,1.29,0,0,1,.21-.3,1.53,1.53,0,0,1,.33-.27,1.92,1.92,0,0,1,.44-.19A1.83,1.83,0,0,1,51,17.6a2.2,2.2,0,0,1,1,.19,1.42,1.42,0,0,1,.58.52,2.09,2.09,0,0,1,.28.78,5.91,5.91,0,0,1,.07,1v2.86h-1.6V20.38c0-.15,0-.3,0-.46a1.46,1.46,0,0,0-.1-.44.69.69,0,0,0-.72-.46,1,1,0,0,0-.5.11.77.77,0,0,0-.29.3,1.23,1.23,0,0,0-.13.42,3.6,3.6,0,0,0,0,.49v2.58H48Z" transform="translate(-5.84 -2.05)"/><path class="cls-1" d="M57,19.26a1.13,1.13,0,0,0-.93-.44.87.87,0,0,0-.39.1.34.34,0,0,0-.19.33.3.3,0,0,0,.2.28,2.59,2.59,0,0,0,.5.16l.65.15a2.44,2.44,0,0,1,.65.25,1.46,1.46,0,0,1,.5.46,1.39,1.39,0,0,1,.2.78,1.45,1.45,0,0,1-.22.83,1.67,1.67,0,0,1-.56.52,2.4,2.4,0,0,1-.77.28,4.53,4.53,0,0,1-.84.08,4.08,4.08,0,0,1-1.1-.15,2.05,2.05,0,0,1-.94-.55l1-1.08a1.61,1.61,0,0,0,.5.42,1.34,1.34,0,0,0,.63.14,1.49,1.49,0,0,0,.5-.08.29.29,0,0,0,.22-.29.32.32,0,0,0-.2-.3,2.15,2.15,0,0,0-.5-.17l-.65-.15a2.7,2.7,0,0,1-.65-.24,1.36,1.36,0,0,1-.5-.45,1.38,1.38,0,0,1-.2-.78,1.58,1.58,0,0,1,.19-.79,1.64,1.64,0,0,1,.49-.54,2.12,2.12,0,0,1,.7-.31,3.21,3.21,0,0,1,.8-.1,3.75,3.75,0,0,1,1,.15,1.92,1.92,0,0,1,.88.53Z" transform="translate(-5.84 -2.05)"/><path class="cls-1" d="M11.43,31.81H10v1.73a3.37,3.37,0,0,0,0,.39.79.79,0,0,0,.1.3.49.49,0,0,0,.23.2,1,1,0,0,0,.41.07l.34,0a.56.56,0,0,0,.31-.12v1.33a2.4,2.4,0,0,1-.55.13,5.34,5.34,0,0,1-.57,0,3.08,3.08,0,0,1-.75-.08,1.69,1.69,0,0,1-.6-.27,1.28,1.28,0,0,1-.4-.49,1.66,1.66,0,0,1-.14-.72V31.81h-1V30.53h1V29H10v1.54h1.41Z" transform="translate(-5.84 -2.05)"/><path class="cls-1" d="M12,33.12A2.72,2.72,0,0,1,12.27,32a2.58,2.58,0,0,1,.61-.86,2.7,2.7,0,0,1,.92-.55,3.39,3.39,0,0,1,2.25,0,2.71,2.71,0,0,1,.92.55,2.59,2.59,0,0,1,.61.86,2.92,2.92,0,0,1,0,2.24,2.59,2.59,0,0,1-.61.86,2.71,2.71,0,0,1-.92.55,3.4,3.4,0,0,1-2.25,0,2.7,2.7,0,0,1-.92-.55,2.58,2.58,0,0,1-.61-.86A2.71,2.71,0,0,1,12,33.12Zm1.6,0a1.34,1.34,0,0,0,.34.95,1.41,1.41,0,0,0,1.89,0,1.51,1.51,0,0,0,0-1.9,1.41,1.41,0,0,0-1.89,0A1.34,1.34,0,0,0,13.64,33.12Z" transform="translate(-5.84 -2.05)"/><path class="cls-1" d="M25.41,32.21a.91.91,0,0,0-.33-.28,1,1,0,0,0-.46-.11,1.23,1.23,0,0,0-.94.36,1.51,1.51,0,0,0,0,1.9,1.22,1.22,0,0,0,.94.36.86.86,0,0,0,.46-.12,1.4,1.4,0,0,0,.33-.28l1.06,1.11a2,2,0,0,1-.88.54,3.32,3.32,0,0,1-1,.15,3.26,3.26,0,0,1-1.12-.19,2.71,2.71,0,0,1-.92-.55,2.59,2.59,0,0,1-.61-.86A2.92,2.92,0,0,1,22,32a2.59,2.59,0,0,1,.61-.86,2.71,2.71,0,0,1,.92-.55,3.26,3.26,0,0,1,1.13-.19,3.32,3.32,0,0,1,1,.15,2,2,0,0,1,.88.54Z" transform="translate(-5.84 -2.05)"/><path class="cls-1" d="M28.64,27.65v3.58h0a.94.94,0,0,1,.18-.3,1.42,1.42,0,0,1,.31-.27,1.7,1.7,0,0,1,.43-.19,1.83,1.83,0,0,1,.53-.08,2.21,2.21,0,0,1,1,.19,1.42,1.42,0,0,1,.58.52,2.09,2.09,0,0,1,.28.78,5.91,5.91,0,0,1,.07,1v2.86h-1.6V33.18c0-.15,0-.3,0-.46a1.46,1.46,0,0,0-.1-.44.69.69,0,0,0-.72-.46,1,1,0,0,0-.5.11.78.78,0,0,0-.29.3,1.24,1.24,0,0,0-.13.42,3.59,3.59,0,0,0,0,.49v2.58H27V27.65Z" transform="translate(-5.84 -2.05)"/><path class="cls-1" d="M33,33.12A2.72,2.72,0,0,1,33.2,32a2.58,2.58,0,0,1,.61-.86,2.7,2.7,0,0,1,.92-.55,3.39,3.39,0,0,1,2.25,0,2.71,2.71,0,0,1,.92.55,2.59,2.59,0,0,1,.61.86,2.92,2.92,0,0,1,0,2.24,2.59,2.59,0,0,1-.61.86,2.71,2.71,0,0,1-.92.55,3.4,3.4,0,0,1-2.25,0,2.7,2.7,0,0,1-.92-.55,2.58,2.58,0,0,1-.61-.86A2.71,2.71,0,0,1,33,33.12Zm1.6,0a1.34,1.34,0,0,0,.34.95,1.41,1.41,0,0,0,1.89,0,1.51,1.51,0,0,0,0-1.9,1.41,1.41,0,0,0-1.89,0A1.34,1.34,0,0,0,34.57,33.12Z" transform="translate(-5.84 -2.05)"/><path class="cls-1" d="M39.48,33.12A2.72,2.72,0,0,1,39.7,32a2.58,2.58,0,0,1,.61-.86,2.7,2.7,0,0,1,.92-.55,3.39,3.39,0,0,1,2.25,0,2.71,2.71,0,0,1,.92.55A2.59,2.59,0,0,1,45,32a2.92,2.92,0,0,1,0,2.24,2.59,2.59,0,0,1-.61.86,2.71,2.71,0,0,1-.92.55,3.4,3.4,0,0,1-2.25,0,2.7,2.7,0,0,1-.92-.55,2.58,2.58,0,0,1-.61-.86A2.71,2.71,0,0,1,39.48,33.12Zm1.6,0a1.34,1.34,0,0,0,.34.95,1.41,1.41,0,0,0,1.89,0,1.51,1.51,0,0,0,0-1.9,1.41,1.41,0,0,0-1.89,0A1.34,1.34,0,0,0,41.08,33.12Z" transform="translate(-5.84 -2.05)"/><path class="cls-1" d="M49.11,32.06a1.13,1.13,0,0,0-.93-.44.87.87,0,0,0-.39.1.34.34,0,0,0-.19.33.3.3,0,0,0,.2.28,2.62,2.62,0,0,0,.5.16l.65.15a2.46,2.46,0,0,1,.65.25,1.45,1.45,0,0,1,.5.46,1.39,1.39,0,0,1,.2.78,1.45,1.45,0,0,1-.22.83,1.67,1.67,0,0,1-.56.52,2.39,2.39,0,0,1-.77.28,4.53,4.53,0,0,1-.84.08,4.1,4.1,0,0,1-1.1-.15,2.05,2.05,0,0,1-.94-.55l1-1.08a1.61,1.61,0,0,0,.5.42,1.34,1.34,0,0,0,.63.14,1.47,1.47,0,0,0,.5-.08.29.29,0,0,0,.22-.29.32.32,0,0,0-.2-.3,2.13,2.13,0,0,0-.5-.17l-.65-.15a2.7,2.7,0,0,1-.65-.24,1.36,1.36,0,0,1-.5-.45,1.38,1.38,0,0,1-.2-.78,1.59,1.59,0,0,1,.19-.79,1.64,1.64,0,0,1,.49-.54,2.11,2.11,0,0,1,.7-.31,3.21,3.21,0,0,1,.8-.1,3.75,3.75,0,0,1,1,.15,1.92,1.92,0,0,1,.88.53Z" transform="translate(-5.84 -2.05)"/><path class="cls-1" d="M56,34.82a2.55,2.55,0,0,1-1,.76,2.9,2.9,0,0,1-1.22.27,3.26,3.26,0,0,1-1.12-.19,2.71,2.71,0,0,1-.92-.55,2.59,2.59,0,0,1-.61-.86,2.92,2.92,0,0,1,0-2.24,2.59,2.59,0,0,1,.61-.86,2.71,2.71,0,0,1,.92-.55,3.26,3.26,0,0,1,1.13-.19,2.56,2.56,0,0,1,1,.19,2.09,2.09,0,0,1,.77.55,2.49,2.49,0,0,1,.49.86,3.45,3.45,0,0,1,.17,1.12v.5H52.55a1.27,1.27,0,0,0,.42.73,1.18,1.18,0,0,0,.79.27,1.2,1.2,0,0,0,.67-.18A1.78,1.78,0,0,0,54.9,34Zm-1.35-2.28a.93.93,0,0,0-.27-.69,1,1,0,0,0-.71-.29,1.21,1.21,0,0,0-.47.08,1.17,1.17,0,0,0-.35.22,1,1,0,0,0-.22.31,1,1,0,0,0-.09.37Z" transform="translate(-5.84 -2.05)"/></svg>